<svg height="512" viewBox="0 0 60 60" width="512" xmlns="http://www.w3.org/2000/svg"><g id="Page-1" fill="none" fill-rule="evenodd"><g id="033---Cook-Lobster" fill-rule="nonzero" transform="translate(0 -1)"><path id="Shape" d="m7 36h46v19c0 2.7614237-2.2385763 5-5 5h-36c-2.76142375 0-5-2.2385763-5-5z" fill="#7f8e94"/><path id="Shape" d="m50 36v19c0 2.7614237-2.2385763 5-5 5h3c2.7614237 0 5-2.2385763 5-5v-19z" fill="#545c60"/><path id="Shape" d="m53 36h4c1.1045695 0 2 .8954305 2 2s-.8954305 2-2 2h-4z" fill="#607d8b"/><path id="Shape" d="m57 36h-3c1.1045695 0 2 .8954305 2 2s-.8954305 2-2 2h3c1.1045695 0 2-.8954305 2-2s-.8954305-2-2-2z" fill="#37474f"/><path id="Shape" d="m1 36h4c1.1045695 0 2 .8954305 2 2s-.8954305 2-2 2h-4z" fill="#607d8b" transform="matrix(-1 0 0 -1 8 76)"/><path id="Shape" d="m45.67 3.512c-.1295409-.51439788-.4581291-.95626293-.9134725-1.22838127-.4553435-.27211833-1.0001391-.35219724-1.5145275-.22261873l-40.73 10.251c-1.07115627.2697911-1.7207911 1.3568437-1.451 2.428s1.35684373 1.7207911 2.428 1.451l40.729-10.251c.5145826-.12932212.9566893-.45781948 1.2290103-.91318824s.3525362-1.00028561.2229897-1.51481176z" fill="#607d8b"/><path id="Shape" d="m45.67 3.512c-.1295409-.51439788-.4581291-.95626293-.9134725-1.22838127-.4553435-.27211833-1.0001391-.35219724-1.5145275-.22261873l-1.333.339c.628468.45404588.9358172 1.2319024.7874403 1.99289778s-.7254333 1.36641277-1.4784403 1.55110222l-39.4 9.915c.4776144.3561674 1.08973862.479473 1.668.336l40.732-10.255c.5145826-.12932212.9566893-.45781948 1.2290103-.91318824s.3525362-1.00028561.2229897-1.51481176z" fill="#37474f"/><path id="Shape" d="m48 41h-36c-.5522847 0-1-.4477153-1-1s.4477153-1 1-1h36c.5522847 0 1 .4477153 1 1s-.4477153 1-1 1z" fill="#607d8b"/><path id="Shape" d="m22 24.938c0 3.904-2.69 7.062-6 7.062s-6-3.158-6-7.062c0-3.4 2.034-6.226 4.741-6.907.3024529-.0765306.6232981-.0091352.8693958.1826216.2460976.1917567.3898787.4863934.3896042.7983784v4.527c-.0026643.3228521.1507112.6271277.4118308.8170148.2611196.1898872.5978535.2420209.9041692.1399852l3.342-1.122c.2860201-.098209.6012052-.0607287.8562175.1018174.2550124.162546.4220558.4324403.4537825.7331826.0213333.2393333.032.4823333.032.729z" fill="#f44335"/><path id="Shape" d="m21.969 24.209c-.0320165-.3008138-.1992778-.5706761-.4544321-.7331886-.2551544-.1625124-.5704284-.1999858-.8565679-.1018114l-1.771.594c.0384294.07612.0660298.1572382.082.241.02.239.031.482.031.729.141224 3.012005-1.6766933 5.7711997-4.5 6.83.4857604.1511531.9912728.229339 1.5.232 3.31 0 6-3.158 6-7.062 0-.247-.011-.49-.031-.729z" fill="#c81e1e"/><path id="Shape" d="m23.29 36c.8846678-2.9672665 3.6136623-5.0007944 6.71-5 3.0963377-.0007944 5.8253322 2.0327335 6.71 5z" fill="#f44335"/><path id="Shape" d="m30 31c-.5050659.0060386-1.0079946.0667253-1.5.181 2.4825923.5416589 4.4767017 2.3861144 5.21 4.819h3c-.8846678-2.9672665-3.6136623-5.0007944-6.71-5z" fill="#c81e1e"/><path id="Shape" d="m38 24.938c0 3.904 2.69 7.062 6 7.062s6-3.158 6-7.062c0-3.4-2.034-6.226-4.741-6.907-.3024529-.0765306-.6232981-.0091352-.8693958.1826216-.2460976.1917567-.3898787.4863934-.3896042.7983784v4.527c.0026643.3228521-.1507112.6271277-.4118308.8170148-.2611196.1898872-.5978535.2420209-.9041692.1399852l-3.342-1.122c-.2860201-.098209-.6012052-.0607287-.8562175.1018174-.2550124.162546-.4220558.4324403-.4537825.7331826-.0213333.2393333-.032.4823333-.032.729z" fill="#f44335"/><path id="Shape" d="m45.259 18.031c-.2736474-.0685866-.563514-.0193594-.7991766.1357218s-.3955521.4018226-.4408234.6802782c1.9266157 1.4234585 3.0389546 3.6962717 2.981 6.091.141224 3.012005-1.6766933 5.7711997-4.5 6.83.4857604.1511531.9912728.229339 1.5.232 3.31 0 6-3.158 6-7.062 0-3.396-2.034-6.226-4.741-6.907z" fill="#c81e1e"/><g fill="#000"><path id="Shape" d="m57 35h-12.948l.683-2.045c3.516-.425 6.265-3.855 6.265-8.017 0-3.764-2.312-7.076-5.5-7.876-.600825-.1510262-1.2377245-.0165526-1.726214.3644692s-.7739836.9660152-.773786 1.5855308v4.536l-3.341-1.122c-.5843714-.1968682-1.2268278-.1138873-1.742.225-.5054803.3278788-.8313282.8707127-.883 1.471-.024.2666667-.036.5386667-.036.816 0 3.918 2.441 7.189 5.662 7.911l-.716 2.151h-4.554c-.8040245-1.9591054-2.3495607-3.5211752-4.3-4.346.347-4.488 1.622-5.947 1.621-5.947.3789722-.3923789.3735524-1.0160848-.0121814-1.4018186s-1.0094397-.3911536-1.4018186-.0121814c-.185.185-1.714 1.858-2.168 6.8-.7448748-.1239988-1.5051252-.1239988-2.25 0-.454-4.942-1.983-6.615-2.168-6.8-.3834721-.3816431-1.0021604-.3852039-1.39-.008-.3904701.3807265-.4081768 1.002675-.04 1.405.013.015 1.29 1.475 1.637 5.964-1.9534604.8230908-3.502096 2.3853866-4.308 4.346h-4.553l-.719-2.151c3.221-.722 5.662-3.993 5.662-7.911 0-.2766667-.012-.5483333-.036-.815-.0513737-.6006493-.3772567-1.1439107-.883-1.472-.5149038-.3396104-1.1577045-.4226357-1.742-.225l-3.339 1.113v-4.527c.0001976-.6195156-.2852965-1.204509-.773786-1.5855308s-1.125389-.5154954-1.726214-.3644692c-3.186.8-5.5 4.112-5.5 7.876 0 4.159 2.749 7.592 6.265 8.017l.683 2.045h-12.948c-1.65685425 0-3 1.3431458-3 3s1.34314575 3 3 3h3v14c.00330738 3.3123376 2.68766243 5.9966926 6 6h36c3.3123376-.0033074 5.9966926-2.6876624 6-6v-14h3c1.6568542 0 3-1.3431458 3-3s-1.3431458-3-3-3zm-18-10.062c0-.217.009-.431.024-.616l3.342 1.122c.611368.2043485 1.2837505.1014976 1.8060757-.2762662.5223253-.3777637.8305526-.9841237.8279243-1.6287338l.015-4.539c2.309.58 3.985 3.077 3.985 5.937 0 3.343-2.243 6.063-5 6.063s-5-2.72-5-6.062zm-28 0c0-2.86 1.676-5.357 4-5.926v4.527c-.0010138.6437293.3078829 1.2485961.8299609 1.6251899.522078.3765939 1.1935093.4788733 1.8040391.2748101l3.338-1.139c.0186667.2113333.028.4253333.028.642 0 3.338-2.243 6.058-5 6.058s-5-2.72-5-6.062zm19 7.062c2.1337719.0139356 4.101181 1.1549036 5.173 3h-10.346c1.071819-1.8450964 3.0392281-2.9860644 5.173-3zm-27 7c-.55228475 0-1-.4477153-1-1s.44771525-1 1-1h3v2zm49 16c0 2.209139-1.790861 4-4 4h-36c-2.209139 0-4-1.790861-4-4v-18h44zm5-16h-3v-2h3c.5522847 0 1 .4477153 1 1s-.4477153 1-1 1z"/><path id="Shape" d="m.091 14.984c.19420198.7716892.68703886 1.4346076 1.37006667 1.8428864s1.50028185.5284653 2.27193333.3341136l40.729-10.251c1.1772681-.29564567 2.0603723-1.27157573 2.2372725-2.47243907s-.3872674-2.38999224-1.4292725-3.01256093c-.6819135-.40941574-1.4990595-.5296478-2.27-.334l-13.791 3.471-.84-1.57c-.6502482-1.21353593-2.0430388-1.8287057-3.378-1.492l-6.669 1.677c-1.3346522.33629064-2.2692596 1.53763423-2.267 2.914v1.781l-13.787 3.47c-.77168918.194202-1.43460756.6870389-1.8428864 1.3700667-.40827884.6830278-.52846533 1.5002818-.3341136 2.2719333zm17.964-8.9c-.0010212-.45913382.310742-.85997221.756-.972l6.668-1.678c.4456276-.11178333.9100893.09446075 1.126.5l.6 1.129-4.572 1.154-4.576 1.152zm-15.3 7.194 20.366-5.122 5.819-1.464 14.546-3.661c.0797167-.02049774.1616902-.03091242.244-.031.5050934-.00045291.931228.37581761.9933134.87708097.0620855.50126337-.2593724.9701291-.7493134 1.09291903l-40.729 10.251c-.34879774.0943042-.72134052-.0068832-.97450114-.2646871s-.34756111-.6321241-.24693375-.9791504c.10062736-.3470264.38063045-.6127806.73243489-.6951625z"/><path id="Shape" d="m48 39h-36c-.5522847 0-1 .4477153-1 1s.4477153 1 1 1h36c.5522847 0 1-.4477153 1-1s-.4477153-1-1-1z"/></g></g></g></svg>